<?xml version="1.0" encoding="UTF-8"?>
<!DOCTYPE svg PUBLIC "-//W3C//DTD SVG 1.1//EN" "http://www.w3.org/Graphics/SVG/1.1/DTD/svg11.dtd">
<!-- Creator: CorelDRAW 2019 (64-Bit) -->
<svg xmlns="http://www.w3.org/2000/svg" xml:space="preserve" width="122.996mm" height="20.0707mm" version="1.1" style="shape-rendering:geometricPrecision; text-rendering:geometricPrecision; image-rendering:optimizeQuality; fill-rule:evenodd; clip-rule:evenodd"
viewBox="0 0 53199.22 8681.16"
 xmlns:xlink="http://www.w3.org/1999/xlink"
 xmlns:xodm="http://www.corel.com/coreldraw/odm/2003">
 <defs>
  <style type="text/css">
   <![CDATA[
    .fil1 {fill:#911B29}
    .fil0 {fill:#FAA619}
    .fil2 {fill:#911B29;fill-rule:nonzero}
   ]]>
  </style>
 </defs>
 <g id="Layer_x0020_1">
  <metadata id="CorelCorpID_0Corel-Layer"/>
  <g id="_1654589802608">
   <g>
    <path class="fil0" d="M3680.17 7625.06c81.27,-218.82 167.35,-371.28 201.47,-654.81 -326.78,-7.22 -814.5,-174.27 -1098.62,-316.57 -947.97,-474.74 -1640.11,-1394.65 -1819.52,-2468.23 -164.92,-986.9 74.09,-1879.38 630.8,-2628.52 844.51,-1136.51 2342.75,-1632.15 3752.75,-1163.68 135.81,45.11 224.83,81.7 344.03,141.78 74.14,37.41 266.83,146.76 323.83,161.98 -78.5,-117.22 -536.29,-340.14 -704.11,-415.4 -260.38,-116.7 -550.26,-192.82 -873.67,-245.76 -94.55,-15.48 -188.63,-27.29 -282.18,-35.86l-710.34 0c-1453.73,135.17 -2686.7,1098.06 -3229.48,2501.19 -222.19,574.4 -262.33,1358.96 -165.92,1964.85 272.62,1713.85 1852.31,3159.02 3630.95,3159.02z"/>
    <path class="fil1" d="M3881.65 6970.25c-34.13,283.52 -120.2,435.99 -201.47,654.81 -81.83,101.73 -169.68,281.01 -352.6,480.97 -183.05,200.09 -500.65,392.3 -749.1,518.26l-90.96 56.88c240.92,-5.36 833.57,-251.9 1039.24,-375.95 300.26,-181.14 548.66,-391.57 714.06,-701.26 76.25,-214.4 158.44,-334.78 185.64,-612.55 80.02,-473.66 -36.25,-852.86 -156.71,-1211.95 -63.88,-190.49 -115.92,-348.36 -185.86,-532.27 -221.07,-581.28 -411.55,-1013.46 -275.13,-1792.62 80.88,-462.24 260.25,-680.07 431.88,-1004.42 -74.61,19.94 -153.72,95.81 -214.4,144.68 -105.23,84.73 -259.78,274.92 -321.15,396.98 -348.45,692.91 -400.87,1652.26 -62.89,2401.36 42.99,95.29 65.23,177.03 99.74,280.45 74.18,222.23 159.95,680.45 161.64,936.99 0.99,154.2 -22.1,220.63 -21.93,359.65z"/>
    <path class="fil1" d="M1748.28 3421.78c0,719.69 440.18,1169.56 934.05,1600.57 98.66,86.07 395.55,312.85 523.36,342.65 -116.7,-174.27 -423.58,-437.89 -647.63,-852.04 -211.46,-390.92 -387.37,-700.31 -387.37,-1217.92 0,-346.46 169.21,-570.81 325.61,-772.76 250.3,-323.14 764.45,-367.74 1183.57,-292.87 117.47,20.93 247.71,64.4 349.57,72.88 -123.1,-168.04 -823.49,-295.72 -1098.36,-295.72 -806.84,0 -1182.79,734.17 -1182.79,1415.19z"/>
    <path class="fil0" d="M4426.46 6991.4c-27.21,277.77 -109.39,398.14 -185.64,612.55 628.72,0 1415.88,-385.25 1910.05,-772.32 230.67,-180.67 492.13,-441.27 675.87,-675.87 618.26,-789.24 733.31,-1356.19 814.58,-2332.67l-42.26 0c0,601.73 -191.65,1080.03 -444.42,1519.95 -43.21,75.26 -106.01,165.1 -161.98,239.32 -248.23,329.46 -462.11,545.55 -790.62,793.56 -165.18,124.7 -314.15,203.46 -503.94,298.66 -326.52,163.76 -879.81,316.83 -1271.64,316.83z"/>
    <path class="fil1" d="M4641.99 2450.15c349.87,0 761.03,134.08 971.94,274.27 242.09,160.9 464.36,450.61 464.36,781.84 0,513.24 -146.02,736.03 -490.66,1156.89l-227.51 258.31c127.73,-29.76 344.47,-200.13 450.13,-289.19l231.06 -212.46c405.19,-402.77 468.3,-930.28 261.07,-1454.51 -200.22,-506.53 -954.55,-557.36 -1470.3,-557.36 -63.88,0 -136.03,6.66 -190.1,42.21z"/>
    <path class="fil1" d="M4071.7 1795.38c0,448.88 578.98,544.21 739.93,169.68 136.25,-316.96 -154.41,-549.87 -296.37,-549.87 -259.99,0 -443.56,129.63 -443.56,380.19z"/>
    <polygon class="fil0" points="6078.29,739.28 6078.29,760.39 6102.94,742.78 "/>
    <polygon class="fil0" points="6057.14,718.17 6014.92,697.02 "/>
    <polygon class="fil0" points="6078.29,739.28 6057.14,718.17 "/>
   </g>
   <g>
    <path class="fil2" d="M8716.93 3353.4l0 -127.68c209,6.4 377.77,9.6 505.11,9.6 185.43,0 372.97,-3.2 562.16,-9.6l0 127.68c-33.35,0 -93.56,4.8 -180.58,13.84 -35.47,4.28 -59.13,11.16 -71.5,20.76 -11.85,9.04 -19.85,22.32 -24.14,38.84 -9.73,31.36 -14.58,145.76 -15.61,343.64l-3.24 633.61 -4.84 477.73c-2.12,258 -6.4,412.81 -12.33,463.89 -16.7,128.2 -62.33,246.33 -135.94,354.28 -73.62,108.56 -176.82,204.85 -309.56,290.49 -100.52,63.32 -197.75,95.24 -291.78,95.24 -31.19,0 -69.33,-6.92 -114.49,-20.24 6.44,-71.8 9.69,-120.24 9.69,-144.68 0,-26.08 -3.24,-72.88 -9.69,-140.44l37.63 -17.04c66.09,72.36 140.79,108.52 224.61,108.52 41.91,0 73.62,-11.68 95.68,-35.12 22.06,-23.4 35.99,-89.36 42.43,-197.36 10.25,-167.56 15.61,-377.68 15.61,-629.33l-3.24 -1205.5c0,-205.88 -4.84,-328.77 -13.97,-368.13 -6.44,-25 -18.77,-42.56 -37.11,-52.68 -18.25,-9.56 -106.36,-19.68 -264.88,-30.32zm2576.71 1756.11l45.2 45.76 -70.46 148.96c-75.74,46.8 -156.88,81.36 -243.38,104.8 -86.51,23.4 -178.46,35.08 -276.21,35.08 -228.94,0 -408.96,-65.96 -540.62,-197.36 -131.66,-131.4 -197.8,-316.01 -197.8,-554.33 0,-150.56 19.38,-275.05 58.09,-373.96 31.66,-79.8 83.26,-146.32 155.28,-199.53 72.02,-53.2 154.76,-103.2 248.83,-151.08 93.99,-47.88 197.19,-71.8 309.52,-71.8 172.54,0 314.41,47.88 426.69,143.08 112.33,95.24 168.73,248.44 168.73,459.65 0,26.08 -2.16,65.44 -6.44,118.64l-257.96 46.28c-79.5,5.32 -194.55,7.96 -345.55,7.96l-341.22 0c15.61,178.76 69.85,313.37 162.33,403.81 91.87,90.44 209.52,135.64 352.47,135.64 59.65,0 118.77,-8.52 177.9,-25.52 58.56,-17.56 116.61,-42.56 174.61,-76.08zm-876.95 -603.81c94.55,8.52 189.14,12.76 283.74,12.76 82.74,0 169.77,-4.24 261.12,-12.76l1.64 -73.4c0,-127.16 -23.66,-220.24 -70.93,-279.33 -47.32,-58.48 -111.25,-87.76 -191.83,-87.76 -57.01,0 -105.88,13.84 -146.76,41.48 -40.83,27.16 -71.45,66 -91.35,115.44 -19.85,50.04 -34.91,144.72 -45.63,283.57zm1115.62 906.49l0 -127.64c105.84,-5.32 166.57,-11.2 182.18,-18.64 12.33,-6.4 22.53,-15.96 29.54,-29.8 11.85,-25 18.25,-79.8 20.42,-164.92 4.33,-152.12 6.44,-289.92 6.44,-414.93 0,-239.92 -3.24,-382.53 -9.65,-426.65 -2.72,-26.08 -12.37,-44.72 -27.98,-55.88 -15.57,-10.64 -82.74,-18.08 -200.95,-22.32l0 -121.32c211.72,-20.2 363.24,-44.68 454.59,-73.92l161.77 -60.12c14.53,0 22.06,10.12 22.06,29.8l-1.08 21.8c-3.76,65.44 -5.36,159.6 -5.36,282.48 53.2,-51.08 111.72,-115.44 176.21,-193.64 47.88,-58 89.75,-96.28 125.26,-113.84 35.47,-17.56 82.74,-26.6 141.83,-26.6 33.35,0 67.22,5.84 101.6,17 -9.69,104.28 -16.13,245.81 -19.33,425.09l-69.9 24.44c-24.14,-40.4 -50.48,-68.6 -78.98,-84.56 -28.5,-16.48 -65.53,-24.48 -111.25,-24.48 -62.33,0 -116.09,15.96 -160.64,48.4 -44.59,32.48 -73.62,69.16 -85.99,111.2 -8.09,30.84 -12.37,137.24 -12.37,318.13 0,263.89 3.76,417.61 10.77,461.25 4.28,29.24 13.97,48.92 29.5,59.04 23.66,15.96 101.6,26.6 233.83,33l0 127.64 -175.74 -4.76c-111.81,-3.2 -208.57,-4.8 -290.23,-4.8 -76.82,0 -167.09,1.6 -269.21,4.8l-177.34 4.76zm1283.79 -1260.78l0 -121.32c167.13,-15.4 322.97,-45.2 468.08,-88.84l155.32 -54.8c18.77,0 27.9,11.72 27.9,35.64l-5.88 92.04c-17.73,238.89 -26.34,469.77 -26.34,692.13 0,143.12 7.48,238.32 22.02,285.69 15.05,47.32 41.39,84.04 80.06,110.12 38.15,26.04 89.75,38.84 154.24,38.84 74.74,0 140.27,-20.24 196.71,-60.64 56.4,-40.44 91.35,-85.12 104.24,-134.08 13.41,-48.4 19.9,-187.8 19.9,-416.53 0,-183.57 -3.24,-291.01 -9.73,-322.41 -3.72,-16.48 -11.25,-27.68 -21.5,-34.04 -16.09,-8.52 -87.02,-15.44 -213.84,-21.8l0 -121.32c214.97,-23.92 372.93,-52.12 473.97,-84.04l166.61 -59.6c17.73,0 26.86,11.2 26.86,33l-3.24 42.04c-17.17,180.84 -25.78,509.09 -25.78,984.7 0,145.24 4.28,236.72 12.37,274.53 5.36,17.52 13.97,29.76 25.26,37.24 16.65,9.56 82.74,18.08 197.75,26.6l0 127.64c-120.37,-6.36 -240.23,-9.56 -358.44,-9.56 -96.71,0 -186.46,3.2 -269.25,9.56l-13.93 -28.16c4.8,-51.64 9.13,-133.56 12.89,-244.72 -97.28,77.64 -191.87,163.32 -283.22,256.4 -74.14,32.44 -147.75,48.4 -219.81,48.4 -96.71,0 -180.54,-19.12 -252.03,-57.44 -70.93,-38.32 -123.57,-88.32 -157.96,-150 -33.87,-61.72 -51.04,-148.96 -51.04,-260.69l3.2 -169.72c3.2,-104.8 4.84,-189.92 4.84,-255.32 0,-184.6 -3.76,-294.73 -11.29,-330.93 -5.36,-23.92 -16.13,-40.96 -33.35,-50.52 -16.65,-10.12 -81.66,-15.96 -195.59,-18.08zm3188.3 -188.89l0 -268.12c0,-166.48 -3.72,-263.32 -10.73,-289.92 -5.36,-19.68 -15.57,-33.52 -31.14,-40.96 -15.05,-7.96 -85.99,-13.28 -212.85,-16.48l0 -111.72c250.43,-27.12 460.04,-77.16 629.85,-150.04l40.83 37.24c-10.16,167.61 -16.13,326.13 -18.25,475.61l-10.77 1223.58c0,204.8 3.76,329.28 11.29,373.96 3.76,28.2 14.49,47.36 30.62,58.52 16.13,10.64 80.62,20.76 193.47,30.36l0 127.64c-128.42,-6.36 -254.15,-9.56 -376.13,-9.56 -88.71,0 -171.45,3.2 -248.31,9.56l-26.86 -18.6c13.45,-105.32 23.1,-189.92 28.98,-254.28 -71.41,52.64 -185.38,143.64 -341.22,272.36 -60.16,21.8 -116.05,32.44 -168.73,32.44 -174.09,0 -319.21,-64.36 -434.73,-192.56 -116.09,-128.2 -174.09,-298.96 -174.09,-512.29 0,-103.76 11.76,-197.93 35.47,-282.53 23.62,-85.08 51.56,-148.4 83.26,-190.96 32.27,-43.08 96.19,-97.36 192.95,-163.84 131.1,-90.44 226.77,-147.36 286.94,-170.76 60.21,-23.44 126.3,-35.12 197.8,-35.12 51,0 103.72,5.32 157.4,16.48 53.2,10.64 108.56,27.12 164.97,50zm0 333.05c-49.39,-70.24 -105.28,-121.84 -168.17,-156.4 -62.85,-34.6 -132.7,-51.6 -209.56,-51.6 -107.48,0 -190.79,38.28 -248.31,114.88 -57.48,76.6 -86.51,204.85 -86.51,385.17 0,185.68 35.47,324.01 106.45,415.49 70.37,92.04 161.16,137.8 271.37,137.8 74.14,0 142.91,-21.28 206.36,-63.84 63.37,-43.12 101,-81.92 111.77,-117.56 11.25,-35.12 16.61,-169.72 16.61,-403.29l0 -260.64zm818.47 375.05c0,-246.33 58.05,-430.93 174.66,-554.85 139.75,-146.32 341.22,-219.72 604.55,-219.72 262.24,0 454.11,58.52 574.49,176.08 120.94,117.56 181.1,303.25 181.1,556.45 0,261.2 -69.29,462.29 -208.48,603.29 -139.23,141.52 -332.66,212.24 -580.37,212.24 -243.47,0 -428.33,-65.96 -555.67,-197.88 -126.86,-131.92 -190.27,-323.96 -190.27,-575.61zm435.3 -106.4c0,276.65 36.03,473.49 107.48,591.05 55.32,90.44 139.19,135.64 250.43,135.64 97.75,0 173.57,-38.28 226.73,-115.44 53.24,-77.12 79.59,-217.04 79.59,-419.73 0,-278.76 -32.83,-471.37 -97.84,-578.81 -53.72,-85.12 -137.03,-127.68 -250.95,-127.68 -97.79,0 -174.66,38.84 -231.1,117.04 -56.4,77.68 -84.34,210.68 -84.34,397.93zm1322.5 847.97l0 -127.64c112.33,-6.4 175.17,-15.44 189.71,-27.16 14.49,-12.24 23.1,-38.84 26.34,-80.32 6.4,-104.8 9.65,-289.92 9.65,-554.85 0,-130.88 -2.12,-243.69 -6.44,-338.37 -2.16,-57.96 -5.93,-92.56 -12.37,-102.68 -4.8,-8.48 -13.41,-14.88 -24.18,-18.6 -11.25,-4.28 -72.54,-8 -182.7,-11.16l0 -121.32c56.45,0 145.07,-12.24 264.92,-36.16 119.85,-24.48 220.89,-52.12 302.55,-83.52l42.43 -14.36c14.53,0 22.06,11.68 22.06,35.64l-1.64 14.36c-3.2,29.24 -4.8,103.72 -4.8,224.48l243.43 -202.68c30.62,-26.04 61.81,-43.6 94.59,-53.2 45.68,-12.24 102.08,-18.6 167.65,-18.6 111.25,0 202.03,19.16 273.01,56.92 70.37,38.28 122.49,90.44 155.28,158 32.83,67.04 49.44,171.28 49.44,312.81 0,62.76 -1.6,135.12 -4.84,217.04 -5.36,168.64 -8.05,314.41 -8.05,437.29 0,70.24 5.93,118.64 17.17,145.76 8.61,18.64 20.46,30.88 35.51,37.24 15.57,6.4 73.1,13.84 173.01,23.44l0 127.64 -193.99 -6.36 -124.65 -3.2 -325.13 9.56 -17.21 -20.2c27.98,-197.36 41.91,-400.61 41.91,-608.61 0,-263.84 -16.13,-426.65 -48.88,-487.81 -41.91,-79.28 -118.25,-118.64 -229.5,-118.64 -71.45,0 -133.26,18.08 -185.38,53.72 -52.64,36.2 -86.51,74.48 -102.08,114.92 -7.53,16.48 -11.29,69.16 -11.29,158 0,376.65 1.6,592.61 4.8,647.41 3.24,54.8 12.37,88.32 26.86,100.56 19.38,15.96 90.31,26.6 213.37,33l0 127.64c-182.74,-6.36 -336.9,-9.56 -462.72,-9.56 -74.65,0 -210.6,3.2 -407.83,9.56zm3593.49 -1203.34l-262.76 0c14.53,51.08 22.02,97.88 22.02,141.52 0,190.96 -68.77,333.52 -206.36,427.17 -137.54,93.08 -298.23,139.92 -482.01,139.92 -29.54,0 -72.54,-2.12 -128.98,-6.4 -47.84,28.2 -78.46,50.56 -91.91,67.56 -12.89,16.52 -19.33,35.12 -19.33,55.88 0,50 34.95,80.32 105.32,90.44 38.71,6.36 252.08,9.56 638.98,9.56 130.06,0 220.33,11.16 269.77,33.52 50,22.32 91.35,62.24 123.62,119.68 32.79,56.92 48.88,130.88 48.88,221.84 0,209.08 -83.31,384.65 -250.43,526.69 -166.61,141.48 -392.26,212.24 -676.56,212.24 -241.26,0 -421.33,-42 -539.54,-125.52 -118.77,-84.08 -177.9,-191 -177.9,-321.33 0,-75.04 18.3,-137.28 54.84,-187.29 17.17,-22.88 74.65,-62.24 173.57,-118.64l112.85 -64.36c-84.91,-16.48 -141.31,-38.28 -169.81,-65.96 -28.46,-27.68 -42.47,-67.04 -42.47,-118.08 0,-55.36 20.46,-122.92 61.29,-203.25l52.12 -32.44c59.69,-38.84 116.61,-80.32 169.81,-125.04 -120.37,-42.52 -207.44,-100 -261.2,-172.88 -53.16,-72.36 -80.02,-163.84 -80.02,-273.44 0,-158.52 61.77,-288.84 185.38,-391.01 123.1,-102.12 296.67,-153.2 519.12,-153.2 110.17,0 206.92,10.64 290.75,32.44 61.77,17.04 123.05,46.28 184.86,88.84 231.62,1.08 383.13,-2.12 453.51,-9.56l26.9 32.44c-28.5,38.84 -63.41,94.68 -104.28,168.64zm-1150.01 132.44c0,155.36 23.14,264.97 69.33,328.25 46.76,63.32 112.89,94.72 199.4,94.72 79.5,0 140.74,-27.68 184.86,-83 43.51,-55.88 65.57,-142.56 65.57,-260.69 0,-129.28 -22.58,-223.44 -68.25,-282.48 -45.2,-59.04 -109.08,-88.84 -191.31,-88.84 -79.02,0 -142.43,25.52 -189.14,77.12 -46.8,51.08 -70.46,122.92 -70.46,214.92zm38.19 1109.22c-88.15,64.88 -145.68,118.64 -171.97,161.2 -26.86,42.56 -40.31,92.04 -40.31,147.36 0,100 39.23,180.84 118.21,243.12 78.46,62.24 194.55,93.08 347.71,93.08 110.17,0 203.63,-17.04 281.58,-51.6 77.38,-34.6 135.42,-81.92 174.66,-142.56 38.71,-60.68 58.05,-127.68 58.05,-201.65 0,-68.08 -15.57,-125.56 -47.32,-172.36 -23.1,-32.44 -54.76,-53.2 -95.11,-62.76 -40.27,-9.04 -156.88,-13.84 -349.83,-13.84l-275.65 0zm2116.19 -38.32l0 -127.64c124.7,-9.6 195.59,-19.16 212.8,-29.8 12.37,-6.4 22.02,-17.04 27.94,-33 10.73,-26.08 18.3,-133.52 23.1,-323.45 4.84,-189.92 7.01,-373.45 7.01,-552.21 0,-332.49 -3.24,-569.77 -10.21,-712.85 -6.96,-142.56 -17.73,-222.36 -33.35,-239.4 -15.01,-16.48 -60.21,-27.12 -135.94,-32.44l-91.35 -8 0 -127.68 177.86 5.32c110.21,2.68 197.8,4.28 262.8,4.28 89.23,0 233.22,-2.12 431.49,-5.84 106.96,-2.68 185.43,-3.76 235.94,-3.76 188.11,0 326.73,17.56 416.48,52.68 89.75,35.12 157.96,88.84 204.72,160.12 46.76,71.28 69.85,160.68 69.85,267.09 0,192.56 -68.77,353.77 -206.88,484.09 -138.11,129.8 -313.28,194.72 -526.13,194.72 -27.38,0 -55.88,-2.12 -86.51,-6.4 -30.62,-3.72 -62.85,-9.56 -97.79,-16.48 -17.73,-37.24 -36.55,-72.88 -56.45,-108l36.03 -38.28c23.1,4.76 44.59,8.48 63.97,11.68 19.33,2.68 37.07,4.28 52.64,4.28 105.84,0 192.39,-36.2 259.56,-109.08 67.17,-72.88 100.48,-175 100.48,-305.88 0,-145.76 -34.91,-254.85 -104.24,-326.65 -69.33,-71.8 -171.45,-107.48 -306.32,-107.48 -54.28,0 -118.77,7.48 -192.39,22.36 -10.73,321.33 -16.09,593.69 -16.09,817.13 0,75 4.28,314.41 12.33,718.73 3.24,159.6 8.61,251.08 16.13,275.56 4.84,17.56 15.05,29.8 29.54,37.24 23.1,11.68 112.33,21.8 267.65,31.4l0 127.64c-185.43,-6.36 -341.78,-9.56 -468.65,-9.56 -56.92,0 -248.75,3.2 -576.04,9.56zm3388.26 -127.64l0 127.64 -122.02 -4.76c-64.49,-3.2 -128.46,-4.8 -192.95,-4.8 -99.4,0 -193.43,3.2 -282.1,9.56l-15.57 -17 16.13 -214.92 -327.81 243.64c-58.61,13.28 -110.73,20.2 -155.84,20.2 -110.73,0 -196.71,-32.96 -257.4,-98.4 -60.73,-65.44 -90.83,-160.64 -90.83,-286.72 0,-154.85 41.35,-263.89 124.14,-327.21 106.36,-82.96 342.3,-157.44 707.75,-222.88 -2.21,-122.36 -23.7,-211.2 -63.97,-266.01 -57.48,-76.08 -146.19,-113.84 -266.01,-113.84 -28.46,0 -56.96,3.2 -87.07,10.12 -29.54,6.92 -59.65,17 -89.75,31.92l-70.37 165.44 -109.65 -26.6 3.24 -69.68 -1.6 -68.64 -1.64 -62.24c160.68,-98.4 276.26,-160.68 346.63,-185.12 51.04,-18.64 122.49,-28.2 213.89,-28.2 124.09,0 224.61,18.6 302.55,55.32 77.38,37.24 134.34,87.24 169.77,151.08 36.03,63.32 53.76,155.88 53.76,277.68 0,51.08 -2.16,142.04 -6.44,273.44 -4.33,135.12 -6.44,244.21 -6.44,326.13 0,130.32 3.76,209.6 11.25,237.8 3.81,16.48 14.01,29.24 30.71,38.84 16.09,9.56 71.97,18.6 167.65,28.2zm-596.5 -641.61c-184.91,39.36 -305.8,82.48 -361.16,128.76 -55.88,46.28 -83.78,108.52 -83.78,186.72 0,63.84 17.69,113.84 53.68,150 35.47,36.72 81.19,54.8 135.47,54.8 83.26,0 168.73,-46.28 255.8,-138.84l0 -381.45zm699.66 769.25l0 -127.64c105.88,-5.32 166.61,-11.2 182.22,-18.64 12.33,-6.4 22.53,-15.96 29.54,-29.8 11.81,-25 18.25,-79.8 20.37,-164.92 4.33,-152.12 6.49,-289.92 6.49,-414.93 0,-239.92 -3.24,-382.53 -9.65,-426.65 -2.72,-26.08 -12.37,-44.72 -27.98,-55.88 -15.57,-10.64 -82.74,-18.08 -201,-22.32l0 -121.32c211.77,-20.2 363.28,-44.68 454.63,-73.92l161.77 -60.12c14.53,0 22.06,10.12 22.06,29.8l-1.08 21.8c-3.76,65.44 -5.41,159.6 -5.41,282.48 53.24,-51.08 111.77,-115.44 176.26,-193.64 47.84,-58 89.75,-96.28 125.22,-113.84 35.51,-17.56 82.79,-26.6 141.87,-26.6 33.35,0 67.22,5.84 101.6,17 -9.69,104.28 -16.13,245.81 -19.38,425.09l-69.85 24.44c-24.18,-40.4 -50.52,-68.6 -78.98,-84.56 -28.5,-16.48 -65.53,-24.48 -111.25,-24.48 -62.37,0 -116.09,15.96 -160.64,48.4 -44.64,32.48 -73.62,69.16 -85.99,111.2 -8.09,30.84 -12.37,137.24 -12.37,318.13 0,263.89 3.76,417.61 10.73,461.25 4.28,29.24 14.01,48.92 29.54,59.04 23.66,15.96 101.6,26.6 233.78,33l0 127.64 -175.69 -4.76c-111.81,-3.2 -208.57,-4.8 -290.23,-4.8 -76.86,0 -167.13,1.6 -269.21,4.8l-177.38 4.76zm1299.92 0l0 -127.64c112.89,-4.28 178.46,-11.72 197.75,-21.84 9.13,-6.36 16.7,-15.4 22.06,-28.2 8.56,-22.88 13.97,-127.12 17.17,-312.81 3.24,-186.2 4.89,-379.28 4.89,-580.41 0,-162.24 -2.72,-370.76 -8.09,-625.61 -4.28,-185.64 -9.13,-288.32 -15.05,-308.52 -5.36,-20.24 -16.65,-35.64 -33.87,-45.24 -16.65,-10.12 -78.46,-15.96 -184.86,-18.08l0 -111.72c140.83,-13.28 254.76,-29.8 342.35,-48.4 87.59,-19.16 167.13,-44.68 239.66,-76.6 19.9,-8 34.43,-12.24 42.43,-12.24 15.61,0 23.66,13.84 23.66,42l-2.68 67.04c-3.76,77.16 -7.48,369.73 -10.21,877.77l-3.24 436.25 3.24 85.64c221.41,-185.64 450.35,-409.61 686.25,-672.41 74.7,6.36 141.31,9.56 199.91,9.56 69.85,0 144.55,-3.2 223.01,-9.56l0 127.64c-116.65,6.4 -186.51,13.32 -210.64,20.76 -24.22,8 -60.21,29.8 -107.48,65.96 -46.76,36.2 -178.42,149.48 -393.95,339.97l227.34 254.28c261.2,293.64 414.84,459.65 461.6,497.93 30.1,26.08 72.06,41.52 126.3,46.84l0 127.64c-117.69,-6.36 -225.69,-9.56 -324.57,-9.56 -76.34,0 -152.08,3.2 -226.21,9.56 -104.28,-136.16 -208,-262.24 -312.24,-378.77 -141.35,-158.52 -257.96,-281.4 -349.31,-367.61l0 251.65c0,145.76 6.44,244.72 19.33,296.84 4.89,22.88 15.61,38.84 31.75,47.36 15.53,9.04 80.62,16.48 193.99,22.88l0 127.64c-203.16,-6.36 -339.1,-9.56 -407.92,-9.56 -66.05,0 -223.53,3.2 -472.37,9.56zm2801.45 0l0 -127.64 94.03 -6.4c76.3,-4.24 123.62,-17.56 142.95,-39.92 19.33,-21.8 30.62,-96.8 33.82,-225 6.44,-256.45 9.69,-534.65 9.69,-833.66 0,-159.04 -0.52,-339.92 -1.6,-542.61 -1.08,-122.36 -8.09,-197.36 -20.42,-224.48 -6.44,-13.32 -17.73,-24.48 -34.95,-32.48 -16.65,-8.48 -91.35,-17 -223.53,-26.6l0 -127.68c126.77,2.16 250.91,3.2 372.41,3.2 141.31,0 277.29,-1.04 408.39,-3.2 56.4,131.96 115.01,262.8 175.74,392.61 42.99,92.04 233.22,484.13 570.16,1175.7 358.44,-710.17 609.39,-1233.14 752.34,-1568.31 126.3,6.4 246.15,9.6 359.52,9.6 133.26,0 261.72,-3.2 385.82,-9.6l0 127.68c-139.14,8.52 -217.61,20.76 -235.86,36.2 -17.73,15.96 -29.58,64.36 -34.95,145.76 -6.44,130.84 -9.69,379.85 -9.69,746.37 0,184.6 1.64,380.37 4.8,585.73 3.24,205.88 10.25,322.36 20.98,350.05 7.53,15.96 17.73,28.2 31.75,36.68 13.97,8.52 88.11,18.64 222.97,30.36l0 127.64c-169.81,-6.36 -321.84,-9.56 -455.15,-9.56 -134.3,0 -316.52,3.2 -547.58,9.56l0 -127.64 91.87 -3.2c72.58,-3.2 118.21,-13.32 135.94,-30.32 18.3,-17.56 30.1,-62.8 35.51,-136.72 4.84,-73.96 7.48,-246.84 7.48,-519.25l0 -941.05c-162.24,321.84 -369.16,743.69 -621.2,1265.06 -103.2,214.92 -183.74,389.41 -241.83,525.05l-102.12 0c-78.98,-179.28 -184.26,-405.37 -315.96,-679.33l-543.82 -1110.78 0 211.72c0,586.25 2.12,990.02 6.44,1211.34 3.2,89.88 15.05,145.76 35.99,166.48 20.93,21.28 99.44,34.6 234.86,41l0 127.64c-106.45,-6.36 -213.37,-9.56 -319.77,-9.56 -159.04,0 -300.39,3.2 -425.05,9.56zm4526.89 -302.68l45.2 45.76 -70.42 148.96c-75.78,46.8 -156.92,81.36 -243.43,104.8 -86.51,23.4 -178.42,35.08 -276.21,35.08 -228.94,0 -408.96,-65.96 -540.62,-197.36 -131.66,-131.4 -197.8,-316.01 -197.8,-554.33 0,-150.56 19.38,-275.05 58.09,-373.96 31.66,-79.8 83.26,-146.32 155.28,-199.53 72.02,-53.2 154.76,-103.2 248.83,-151.08 94.03,-47.88 197.23,-71.8 309.52,-71.8 172.54,0 314.41,47.88 426.69,143.08 112.33,95.24 168.73,248.44 168.73,459.65 0,26.08 -2.16,65.44 -6.44,118.64l-257.96 46.28c-79.5,5.32 -194.55,7.96 -345.55,7.96l-341.22 0c15.61,178.76 69.85,313.37 162.33,403.81 91.87,90.44 209.52,135.64 352.51,135.64 59.6,0 118.73,-8.52 177.86,-25.52 58.56,-17.56 116.61,-42.56 174.61,-76.08zm-876.95 -603.81c94.55,8.52 189.14,12.76 283.74,12.76 82.74,0 169.77,-4.24 261.12,-12.76l1.64 -73.4c0,-127.16 -23.66,-220.24 -70.93,-279.33 -47.32,-58.48 -111.25,-87.76 -191.83,-87.76 -57.01,0 -105.88,13.84 -146.71,41.48 -40.87,27.16 -71.5,66 -91.39,115.44 -19.85,50.04 -34.91,144.72 -45.63,283.57zm2363.43 -543.17l0 -268.12c0,-166.48 -3.76,-263.32 -10.77,-289.92 -5.36,-19.68 -15.53,-33.52 -31.14,-40.96 -15.05,-7.96 -85.99,-13.28 -212.85,-16.48l0 -111.72c250.48,-27.12 460.04,-77.16 629.85,-150.04l40.83 37.24c-10.16,167.61 -16.09,326.13 -18.25,475.61l-10.73 1223.58c0,204.8 3.72,329.28 11.25,373.96 3.76,28.2 14.53,47.36 30.62,58.52 16.13,10.64 80.62,20.76 193.47,30.36l0 127.64c-128.42,-6.36 -254.15,-9.56 -376.13,-9.56 -88.71,0 -171.45,3.2 -248.31,9.56l-26.86 -18.6c13.45,-105.32 23.1,-189.92 29.02,-254.28 -71.45,52.64 -185.38,143.64 -341.27,272.36 -60.16,21.8 -116.05,32.44 -168.73,32.44 -174.09,0 -319.21,-64.36 -434.73,-192.56 -116.09,-128.2 -174.09,-298.96 -174.09,-512.29 0,-103.76 11.81,-197.93 35.47,-282.53 23.66,-85.08 51.56,-148.4 83.26,-190.96 32.27,-43.08 96.24,-97.36 192.95,-163.84 131.14,-90.44 226.77,-147.36 286.94,-170.76 60.21,-23.44 126.3,-35.12 197.8,-35.12 51.04,0 103.72,5.32 157.4,16.48 53.24,10.64 108.61,27.12 165.01,50zm0 333.05c-49.44,-70.24 -105.32,-121.84 -168.17,-156.4 -62.89,-34.6 -132.74,-51.6 -209.6,-51.6 -107.48,0 -190.75,38.28 -248.31,114.88 -57.48,76.6 -86.51,204.85 -86.51,385.17 0,185.68 35.47,324.01 106.45,415.49 70.37,92.04 161.16,137.8 271.37,137.8 74.14,0 142.91,-21.28 206.36,-63.84 63.41,-43.12 101,-81.92 111.77,-117.56 11.25,-35.12 16.65,-169.72 16.65,-403.29l0 -260.64zm1225.79 -1146.46c67.17,0 124.65,23.4 172.49,70.76 47.88,47.36 71.5,104.8 71.5,172.36 0,67.04 -23.62,123.96 -71.5,171.32 -47.84,47.32 -105.84,70.72 -174.09,70.72 -67.73,0 -125.22,-23.4 -173.01,-70.72 -47.84,-47.36 -71.5,-104.28 -71.5,-171.32 0,-67.56 23.66,-125 71.5,-172.36 47.79,-47.36 105.84,-70.76 174.61,-70.76zm-439.58 2263.08l0 -127.64c119.29,-4.28 188.11,-11.2 206.36,-21.84 18.82,-10.64 30.62,-39.36 35.47,-87.24 8.56,-65.44 12.89,-210.12 12.89,-433.57 0,-96.28 -1.6,-185.68 -4.84,-268.12l-4.84 -181.92c0,-60.64 -6.4,-97.36 -19.29,-111.72 -13.45,-13.84 -48.96,-21.84 -106.96,-23.96l-118.77 -4.76 0 -121.32c253.12,-19.12 461.08,-63.84 624.96,-134.04l39.27 31.36c-15.05,198.96 -22.58,488.37 -22.58,868.22 0,219.72 3.76,352.73 10.77,398.49 5.32,31.92 15.01,52.64 29.02,62.24 13.93,9.56 82.74,18.6 205.24,28.2l0 127.64c-189.14,-6.36 -335.86,-9.56 -439.58,-9.56 -55.36,0 -204.2,3.2 -447.11,9.56zm2215.11 -951.17l-128.98 0c-7.53,-125 -16.13,-196.84 -26.86,-215.44 -13.45,-29.28 -44.07,-56.4 -91.91,-80.36 -47.84,-23.92 -108,-36.16 -180.58,-36.16 -111.25,0 -192.35,31.4 -243.38,94.16 -51.08,63.32 -76.34,176.08 -76.34,339.41 0,206.97 47.84,366.53 142.95,479.33 95.63,112.76 218.17,169.16 368.13,169.16 54.24,0 104.24,-4.8 149.91,-13.84 45.68,-9.56 87.59,-22.84 125.22,-40.96l26.34 34.6c-23.14,49.48 -44.12,100 -63.97,150.56 -69.29,34.04 -139.75,60.08 -211.72,77.12 -71.45,17.04 -144.55,25.52 -217.65,25.52 -228.94,0 -406.79,-62.76 -534.17,-187.76 -127.38,-125.56 -191.26,-303.25 -191.26,-534.13 0,-85.12 8.61,-162.24 25.22,-231.4 16.65,-69.16 39.27,-127.68 68.25,-176.08 29.02,-48.44 60.73,-87.8 95.11,-117.6 20.98,-17 111.25,-74.48 270.85,-173.4 92.99,-58 160.68,-93.64 203.68,-107.48 42.43,-13.28 98.88,-20.2 170.33,-20.2 62.89,0 124.14,4.8 183.82,14.36 60.16,9.04 118.21,23.4 174.61,42.04l26.9 28.16c-37.63,175.04 -59.13,335.17 -64.49,480.41zm1734.14 823.54l0 127.64 -121.97 -4.76c-64.49,-3.2 -128.46,-4.8 -192.95,-4.8 -99.4,0 -193.43,3.2 -282.1,9.56l-15.57 -17 16.13 -214.92 -327.81 243.64c-58.61,13.28 -110.73,20.2 -155.84,20.2 -110.73,0 -196.71,-32.96 -257.4,-98.4 -60.73,-65.44 -90.83,-160.64 -90.83,-286.72 0,-154.85 41.35,-263.89 124.14,-327.21 106.36,-82.96 342.3,-157.44 707.75,-222.88 -2.21,-122.36 -23.7,-211.2 -63.97,-266.01 -57.48,-76.08 -146.19,-113.84 -266.01,-113.84 -28.46,0 -56.96,3.2 -87.07,10.12 -29.54,6.92 -59.65,17 -89.75,31.92l-70.37 165.44 -109.65 -26.6 3.24 -69.68 -1.6 -68.64 -1.64 -62.24c160.68,-98.4 276.26,-160.68 346.63,-185.12 51.04,-18.64 122.49,-28.2 213.89,-28.2 124.09,0 224.61,18.6 302.55,55.32 77.38,37.24 134.34,87.24 169.77,151.08 36.03,63.32 53.76,155.88 53.76,277.68 0,51.08 -2.16,142.04 -6.44,273.44 -4.33,135.12 -6.44,244.21 -6.44,326.13 0,130.32 3.76,209.6 11.25,237.8 3.81,16.48 14.01,29.24 30.71,38.84 16.09,9.56 71.97,18.6 167.61,28.2zm-596.46 -641.61c-184.91,39.36 -305.8,82.48 -361.16,128.76 -55.88,46.28 -83.78,108.52 -83.78,186.72 0,63.84 17.69,113.84 53.68,150 35.47,36.72 81.19,54.8 135.47,54.8 83.26,0 168.73,-46.28 255.8,-138.84l0 -381.45z"/>
    <path class="fil2" d="M41678.2 3321.48l0 -89.36c149.91,-19.68 268.69,-39.88 355.19,-61.16 86.55,-20.76 180.02,-50.56 280.54,-88.84l41.35 34.56c-15.01,371.33 -22.58,890.02 -22.58,1556.07 0,134.08 2.21,269.73 6.49,407.53 2.12,87.24 6.96,137.76 15.01,152.12 7.53,13.84 19.9,25 37.11,33.52 17.21,8 79.5,14.36 186.46,18.64l0 127.64 -166.05 -4.76c-103.16,-3.2 -190.27,-4.8 -260.64,-4.8l-472.88 9.56 0 -127.64 117.13 -6.4c52.68,-2.12 86.51,-11.72 102.12,-28.72 15.05,-17.04 24.18,-82.48 27.38,-195.76 5.41,-157.48 8.05,-380.93 8.05,-670.33l-1.56 -666.57c-1.08,-203.25 -7.01,-317.61 -17.21,-343.69 -4.28,-12.76 -12.37,-21.8 -23.66,-28.16 -19.33,-11.72 -89.71,-19.16 -212.24,-23.44zm3984.72 1755.59l39.23 35.64c-26.9,52.12 -50.56,104.8 -70.98,159.04 -121.97,62.8 -239.66,106.96 -352.51,133 -112.85,26.08 -242.91,39.36 -390.14,39.36 -275.69,0 -508.35,-47.88 -698.58,-143.08 -190.83,-95.76 -336.98,-230.36 -439.62,-403.81 -102.6,-173.4 -153.68,-372.36 -153.68,-596.89 0,-322.88 115.53,-587.85 347.15,-794.25 231.62,-205.88 551.34,-309.09 958.7,-309.09 135.38,0 269.25,11.72 401.95,35.64 133.26,23.96 264.97,60.64 396.07,109.08l11.29 23.4c-18.82,56.4 -32.27,110.12 -39.23,162.24 -13.97,90.44 -24.18,202.68 -31.7,336.77l-135.42 0c-6.44,-164.4 -12.37,-254.28 -18.82,-270.81 -6.44,-15.96 -35.47,-43.6 -86.51,-82.44 -51.6,-39.36 -120.89,-70.76 -209.04,-95.24 -87.59,-24.44 -184.34,-36.68 -290.18,-36.68 -252.03,0 -452.47,77.12 -600.83,230.88 -148.83,153.72 -223.01,368.13 -223.01,642.61 0,297.41 89.75,537.85 268.73,721.93 164.97,170.76 391.74,255.88 680.32,255.88 111.77,0 216.01,-11.16 313.84,-34.04 97.23,-22.88 204.72,-62.24 322.97,-119.16zm1542.27 32.44l45.16 45.76 -70.42 148.96c-75.78,46.8 -156.88,81.36 -243.43,104.8 -86.51,23.4 -178.42,35.08 -276.21,35.08 -228.94,0 -408.96,-65.96 -540.57,-197.36 -131.71,-131.4 -197.8,-316.01 -197.8,-554.33 0,-150.56 19.33,-275.05 58.05,-373.96 31.7,-79.8 83.31,-146.32 155.28,-199.53 72.02,-53.2 154.76,-103.2 248.83,-151.08 94.03,-47.88 197.23,-71.8 309.52,-71.8 172.54,0 314.41,47.88 426.69,143.08 112.33,95.24 168.73,248.44 168.73,459.65 0,26.08 -2.12,65.44 -6.4,118.64l-257.96 46.28c-79.54,5.32 -194.55,7.96 -345.55,7.96l-341.27 0c15.61,178.76 69.9,313.37 162.33,403.81 91.87,90.44 209.56,135.64 352.51,135.64 59.65,0 118.77,-8.52 177.86,-25.52 58.61,-17.56 116.61,-42.56 174.66,-76.08zm-877 -603.81c94.55,8.52 189.14,12.76 283.74,12.76 82.74,0 169.77,-4.24 261.16,-12.76l1.6 -73.4c0,-127.16 -23.62,-220.24 -70.89,-279.33 -47.32,-58.48 -111.25,-87.76 -191.87,-87.76 -56.96,0 -105.88,13.84 -146.71,41.48 -40.87,27.16 -71.5,66 -91.35,115.44 -19.9,50.04 -34.91,144.72 -45.68,283.57zm1176.87 906.49l0 -127.64c112.37,-6.4 175.22,-15.44 189.75,-27.16 14.49,-12.24 23.1,-38.84 26.34,-80.32 6.4,-104.8 9.65,-289.92 9.65,-554.85 0,-130.88 -2.16,-243.69 -6.49,-338.37 -2.12,-57.96 -5.88,-92.56 -12.33,-102.68 -4.84,-8.48 -13.45,-14.88 -24.18,-18.6 -11.29,-4.28 -72.54,-8 -182.74,-11.16l0 -121.32c56.49,0 145.11,-12.24 264.97,-36.16 119.85,-24.48 220.85,-52.12 302.51,-83.52l42.47 -14.36c14.53,0 22.02,11.68 22.02,35.64l-1.6 14.36c-3.2,29.24 -4.8,103.72 -4.8,224.48l243.38 -202.68c30.62,-26.04 61.85,-43.6 94.59,-53.2 45.72,-12.24 102.12,-18.6 167.69,-18.6 111.25,0 202.03,19.16 273.01,56.92 70.37,38.28 122.49,90.44 155.28,158 32.79,67.04 49.44,171.28 49.44,312.81 0,62.76 -1.6,135.12 -4.84,217.04 -5.36,168.64 -8.05,314.41 -8.05,437.29 0,70.24 5.93,118.64 17.17,145.76 8.61,18.64 20.46,30.88 35.47,37.24 15.61,6.4 73.1,13.84 173.05,23.44l0 127.64 -193.99 -6.36 -124.65 -3.2 -325.13 9.56 -17.21 -20.2c27.98,-197.36 41.91,-400.61 41.91,-608.61 0,-263.84 -16.13,-426.65 -48.92,-487.81 -41.87,-79.28 -118.21,-118.64 -229.46,-118.64 -71.45,0 -133.26,18.08 -185.38,53.72 -52.64,36.2 -86.51,74.48 -102.12,114.92 -7.48,16.48 -11.25,69.16 -11.25,158 0,376.65 1.6,592.61 4.8,647.41 3.24,54.8 12.37,88.32 26.86,100.56 19.38,15.96 90.31,26.6 213.37,33l0 127.64c-182.74,-6.36 -336.94,-9.56 -462.72,-9.56 -74.65,0 -210.64,3.2 -407.87,9.56zm1911.52 -1252.3l209.6 -136.16c-2.16,-183.57 -7.57,-344.73 -16.13,-482.53 142.39,-43.64 277.29,-96.8 404.11,-159.08l47.28 35.68c-23.62,150.52 -39.75,352.68 -48.36,605.93 48.36,8.48 96.19,12.76 142.95,12.76 106.92,0 203.12,-7.44 288.02,-22.36l13.97 9.6 -13.97 55.84c-16.13,58.52 -27.38,112.24 -34.91,161.2 -122.54,-8.52 -212.8,-12.76 -270.33,-12.76 -42.99,0 -84.91,2.12 -125.74,6.36 -2.16,104.8 -3.24,197.36 -3.24,277.73 0,348.96 10.77,547.41 31.75,595.29 20.93,47.88 70.37,71.8 148.83,71.8 23.14,0 47.84,-2.64 74.74,-7.96 26.86,-4.8 55.32,-12.24 85.38,-21.84l26.9 59.6c-62.89,69.16 -123.62,141.52 -183.26,216.52 -38.67,6.36 -74.14,10.64 -106.4,13.84 -32.22,3.16 -62.33,4.76 -89.19,4.76 -87.63,0 -161.25,-14.88 -220.37,-45.2 -59.08,-30.32 -101.51,-69.16 -128.37,-117.04 -26.38,-47.88 -39.79,-118.64 -39.79,-213.32 0,-50 2.68,-180.88 8.05,-393.13 5.36,-185.68 8.09,-333.05 8.09,-441.05l-80.62 -3.16c-33.3,0 -76.3,3.16 -128.98,9.56l0 -80.88zm1070.47 1252.3l0 -127.64c105.88,-5.32 166.61,-11.2 182.18,-18.64 12.33,-6.4 22.58,-15.96 29.54,-29.8 11.85,-25 18.25,-79.8 20.42,-164.92 4.33,-152.12 6.44,-289.92 6.44,-414.93 0,-239.92 -3.2,-382.53 -9.65,-426.65 -2.68,-26.08 -12.37,-44.72 -27.94,-55.88 -15.61,-10.64 -82.79,-18.08 -201,-22.32l0 -121.32c211.72,-20.2 363.24,-44.68 454.63,-73.92l161.72 -60.12c14.58,0 22.06,10.12 22.06,29.8l-1.08 21.8c-3.76,65.44 -5.36,159.6 -5.36,282.48 53.2,-51.08 111.77,-115.44 176.26,-193.64 47.84,-58 89.75,-96.28 125.22,-113.84 35.47,-17.56 82.74,-26.6 141.87,-26.6 33.35,0 67.17,5.84 101.56,17 -9.69,104.28 -16.09,245.81 -19.33,425.09l-69.85 24.44c-24.18,-40.4 -50.52,-68.6 -79.02,-84.56 -28.46,-16.48 -65.53,-24.48 -111.25,-24.48 -62.33,0 -116.05,15.96 -160.64,48.4 -44.59,32.48 -73.62,69.16 -85.99,111.2 -8.09,30.84 -12.37,137.24 -12.37,318.13 0,263.89 3.76,417.61 10.77,461.25 4.28,29.24 13.97,48.92 29.54,59.04 23.62,15.96 101.56,26.6 233.78,33l0 127.64 -175.74 -4.76c-111.81,-3.2 -208.52,-4.8 -290.18,-4.8 -76.86,0 -167.13,1.6 -269.25,4.8l-177.34 4.76zm2628.31 -302.68l45.2 45.76 -70.42 148.96c-75.78,46.8 -156.92,81.36 -243.43,104.8 -86.51,23.4 -178.42,35.08 -276.21,35.08 -228.94,0 -408.96,-65.96 -540.62,-197.36 -131.66,-131.4 -197.8,-316.01 -197.8,-554.33 0,-150.56 19.38,-275.05 58.09,-373.96 31.66,-79.8 83.26,-146.32 155.28,-199.53 72.02,-53.2 154.76,-103.2 248.83,-151.08 94.03,-47.88 197.23,-71.8 309.52,-71.8 172.54,0 314.41,47.88 426.69,143.08 112.33,95.24 168.73,248.44 168.73,459.65 0,26.08 -2.16,65.44 -6.44,118.64l-257.92 46.28c-79.54,5.32 -194.59,7.96 -345.59,7.96l-341.22 0c15.61,178.76 69.85,313.37 162.33,403.81 91.87,90.44 209.52,135.64 352.51,135.64 59.6,0 118.73,-8.52 177.86,-25.52 58.61,-17.56 116.61,-42.56 174.61,-76.08zm-876.95 -603.81c94.55,8.52 189.14,12.76 283.74,12.76 82.74,0 169.77,-4.24 261.12,-12.76l1.64 -73.4c0,-127.16 -23.66,-220.24 -70.93,-279.33 -47.32,-58.48 -111.25,-87.76 -191.83,-87.76 -57.01,0 -105.88,13.84 -146.71,41.48 -40.87,27.16 -71.5,66 -91.39,115.44 -19.85,50.04 -34.91,144.72 -45.63,283.57z"/>
   </g>
  </g>
 </g>
</svg>
